<svg width="24" height="24" viewBox="0 0 24 24" fill="none" xmlns="http://www.w3.org/2000/svg">
  <path
    fill="currentColor"
    d="M3 3.4 6.4 2.7 7.3 5.8 10.2 5.5V2.5h3.6v3l2.9.3.9-3.1 3.4.7-1.1 4.1c-2.6-.7-5.2-1-7.9-1s-5.3.3-7.9 1L3 3.4Z"
  />
  <path
    d="M5.8 9.1c2-.5 4.1-.8 6.2-.8s4.2.3 6.2.8c0 5.5-2.4 9.4-6.2 12.4-3.8-3-6.2-6.9-6.2-12.4Z"
    stroke="currentColor"
    stroke-width="1.8"
    stroke-linejoin="round"
  />
  <path
    d="M8.6 13.8c.8-1.2 2-1.8 3.4-1.8s2.6.6 3.4 1.8c-.8 1.2-2 1.8-3.4 1.8s-2.6-.6-3.4-1.8Z"
    stroke="currentColor"
    stroke-width="1.5"
    stroke-linejoin="round"
  />
  <circle cx="12" cy="13.8" r=".9" fill="currentColor"/>
  <path d="m8 17 4 2.7 4-2.7" stroke="currentColor" stroke-width="1.4" stroke-linecap="round" stroke-linejoin="round"/>
</svg>
